#N canvas 0 48 1916 1028 10;
#X floatatom 614 398 5 0 0 0 - - -, f 5;
#X floatatom 708 392 5 0 0 0 - - -, f 5;
#X floatatom 522 399 5 0 0 0 - - -, f 5;
#X obj 599 189 hsl 128 15 0 127 0 0 empty empty empty -2 -8 0 10 -262144
-1 -1 0 1;
#X obj 499 140 hsl 128 15 0 127 0 0 empty empty empty -2 -8 0 10 -262144
-1 -1 0 1;
#X msg 430 221 bang;
#X obj 711 227 hsl 128 15 0 127 0 0 empty empty empty -2 -8 0 10 -262144
-1 -1 0 1;
#X floatatom 541 539 5 0 0 0 - - -, f 5;
#X floatatom 635 533 5 0 0 0 - - -, f 5;
#X floatatom 449 540 5 0 0 0 - - -, f 5;
#X msg 446 115 list 0.3 1 1 1 1;
#X floatatom 897 428 5 0 0 0 - - -, f 5;
#X floatatom 963 430 5 0 0 0 - - -, f 5;
#X obj 902 326 bng 15 250 50 0 empty empty empty 17 7 0 10 -262144
-1 -1;
#X obj 1066 470 xnor/expr fact(4);
#X obj 831 379 expr pow(4 \, 2);
#X obj 951 383 xnor/expr pow(4 \, 2);
#X msg 1034 126 \; pd dsp 1;
#X obj 1096 369 dac~;
#X obj 1029 230 osc~ 440;
#X obj 1034 304 xnor/expr~ $v1 * $v2 \; $v1;
#X msg 1132 133 \; pd dsp 0;
#X obj 737 51 hsl 128 15 0 127 0 0 empty empty empty -2 -8 0 10 -262144
-1 -1 0 1;
#X floatatom 792 128 5 0 0 0 - - -, f 5;
#X floatatom 752 135 5 0 0 0 - - -, f 5;
#X obj 752 112 + 4;
#X obj 854 131 xnor/expr ($f1 + 3) * 3;
#X obj 864 91 hsl 128 15 0 127 0 0 empty empty empty -2 -8 0 10 -262144
-1 -1 0 1;
#X floatatom 854 154 5 0 0 0 - - -, f 5;
#X obj 512 315 xnor/expr 3 + 4 + $f1 + $i2 + $f3 \; sin($f4) + 23 \;
$i2;
#X obj 439 456 expr 3 + 4 + $f1 + $i2 + $f3 \; sin($f4) + 23 \; $i2
;
#X obj 1329 247 array define blah 32;
#X obj 1314 377 xnor/expr blah[$i1];
#X obj 1310 337 hsl 128 15 0 127 0 0 empty empty empty -2 -8 0 10 -262144
-1 -1 0 1;
#X connect 3 0 29 1;
#X connect 3 0 30 1;
#X connect 4 0 29 0;
#X connect 4 0 30 0;
#X connect 5 0 29 0;
#X connect 5 0 30 0;
#X connect 6 0 29 3;
#X connect 6 0 30 3;
#X connect 10 0 29 0;
#X connect 10 0 30 0;
#X connect 13 0 15 0;
#X connect 13 0 16 0;
#X connect 15 0 11 0;
#X connect 16 0 12 0;
#X connect 19 0 20 0;
#X connect 20 0 18 0;
#X connect 20 1 18 1;
#X connect 22 0 23 0;
#X connect 22 0 25 0;
#X connect 25 0 24 0;
#X connect 26 0 28 0;
#X connect 27 0 26 0;
#X connect 29 0 2 0;
#X connect 29 1 0 0;
#X connect 29 2 1 0;
#X connect 30 0 9 0;
#X connect 30 1 7 0;
#X connect 30 2 8 0;
#X connect 33 0 32 0;
